<?xml version="1.0" encoding="iso-8859-1"?>
<!-- Generator: Adobe Illustrator 19.0.0, SVG Export Plug-In . SVG Version: 6.00 Build 0)  -->
<svg version="1.1" id="Capa_1" xmlns="http://www.w3.org/2000/svg" xmlns:xlink="http://www.w3.org/1999/xlink" x="0px" y="0px"
	 viewBox="0 0 512.001 512.001" style="enable-background:new 0 0 512.001 512.001;" xml:space="preserve">
<g>
	<path style="fill:#ACB3BA;" d="M256.219,392.022c-0.107,0.117-0.224,0.117-0.224,0.117v-0.235
		C256.112,391.905,256.219,392.022,256.219,392.022"/>
	<path style="fill:#ACB3BA;" d="M256.219,391.905v0.224c0,0-0.107,0-0.224-0.107C255.984,392.022,256.112,391.905,256.219,391.905"
		/>
</g>
<g>
	<path style="fill:#F8B64C;" d="M186.651,353.835c0.853,1.173,0.747,1.173-0.107,0H186.651z"/>
	<path style="fill:#F8B64C;" d="M186.544,219.702c1.557,17.867-7.104,33.227-19.371,34.304
		c-12.245,1.067-23.477-12.544-25.024-30.421c-1.579-17.867,7.104-33.227,19.349-34.293
		C173.776,188.214,184.966,201.835,186.544,219.702"/>
	<path style="fill:#F8B64C;" d="M370.064,223.585c-1.557,17.867-12.768,31.488-25.045,30.411
		c-12.245-1.067-20.917-16.427-19.349-34.293c1.557-17.877,12.768-31.488,25.024-30.421
		C362.96,190.358,371.632,205.729,370.064,223.585"/>
</g>
<path style="fill:#FFD15C;" d="M256.112,70.518c-56.939,0-103.083,46.155-103.083,103.083v30.955c0,7.893,0.48,15.787,1.461,23.605
	v0.032c4.896,40.043,22.144,77.557,49.355,107.339l9.771,10.709c8.981,9.845,21.685,15.456,34.997,15.456h14.933
	c13.312,0,26.016-5.6,34.997-15.435l9.813-10.731c27.232-29.781,44.48-67.339,49.397-107.371c0.981-7.861,1.44-15.712,1.44-23.605
	v-30.955C359.195,116.673,313.03,70.518,256.112,70.518"/>
<path style="fill:#F8B64C;" d="M345.862,361.131c-0.309,1.067-0.747,2.133-1.269,3.093c-0.331,0.747-0.747,1.387-1.184,2.027
	c-1.163,1.92-29.749,45.227-87.456,45.227c-57.291,0-86.187-43.307-87.349-45.12c-1.088-1.707-1.941-3.413-2.357-5.227l20.267-7.253
	v-40.32h0.107c5.227,7.68,10.88,15.04,17.269,21.973l9.707,10.667c8.96,9.92,21.664,15.467,34.997,15.467h14.912
	c13.333,0,26.037-5.557,34.997-15.36l9.813-10.773c6.4-6.933,12.043-14.293,17.269-21.973v40.32L345.862,361.131z"/>
<g style="opacity:0.1;">
	<g>
		<path style="fill:#40596B;" d="M325.584,313.59c-5.205,7.669-10.912,15.029-17.227,21.941l-9.813,10.731
			c-8.981,9.835-21.685,15.435-34.997,15.435h-14.933c-12.352,0-24.043-5.003-32.853-13.557l0,0l66.421,60.085
			c40.128-10.037,60.245-40.363,61.227-41.963c0.437-0.64,0.853-1.28,1.184-2.027c0.523-0.96,0.96-2.027,1.269-3.093l-20.267-7.253
			V313.59H325.584z"/>
	</g>
</g>
<path style="fill:#F2F2F2;" d="M446.779,397.473l-121.141-43.648v0.011v0.011c0,0-0.789,0.96-0.789,0.853
	c-17.045,23.136-42.859,34.549-68.747,34.56h-0.043c0,0-0.021,0-0.043,0c-25.792-0.011-51.605-11.424-68.747-34.56l-0.672-0.821
	l-0.043-0.032L65.222,397.473c-37.856,13.547-63.253,49.6-63.253,89.92v24.597h508.064v-24.597
	C510.022,447.073,484.635,411.019,446.779,397.473"/>
<rect x="239.547" y="397.857" style="fill:#CDD6E0;" width="33.397" height="114.144"/>
<g>
	<path style="fill:#ACB3BA;" d="M287.547,453.846l-31.435-50.347l-31.168,50.347c-80.331-63.253-38.4-112-38.4-112
		c11.733,41.6,69.643,47.36,69.643,47.36s57.92-5.76,69.749-47.36C325.947,341.846,367.878,390.593,287.547,453.846"/>
	<path style="fill:#ACB3BA;" d="M262.886,447.969c0,3.669-2.955,6.645-6.645,6.645c-3.648,0-6.624-2.976-6.624-6.645
		c0-3.669,2.976-6.645,6.624-6.645C259.92,441.323,262.886,444.299,262.886,447.969"/>
	<path style="fill:#ACB3BA;" d="M262.886,483.254c0,3.669-2.955,6.645-6.645,6.645c-3.648,0-6.624-2.976-6.624-6.645
		s2.976-6.645,6.624-6.645C259.92,476.609,262.886,479.585,262.886,483.254"/>
</g>
<g>
	<polygon style="fill:#CDD6E0;" points="107.11,511.99 83.003,511.99 107.11,446.465 	"/>
	<polygon style="fill:#CDD6E0;" points="404.88,511.99 428.987,511.99 404.88,446.465 	"/>
</g>
<g>
	<path style="fill:#40596B;" d="M355.067,242.07l-30.603,43.349c-8.416,11.915-25.728,12.885-35.435,2.005l-0.043-0.053
		c-4.288-4.821-10.453-7.584-16.917-7.584h-31.915c-6.475,0-12.629,2.763-16.939,7.605c-9.685,10.891-26.997,9.931-35.435-1.973
		l-30.624-43.349c-4.629,121.333,98.976,125.067,98.976,125.067S359.739,363.403,355.067,242.07 M227.59,325.121
		c0-10.912,8.832-19.744,19.733-19.744h17.557c10.891,0,19.755,8.832,19.755,19.744H227.59z"/>
	<path style="fill:#40596B;" d="M370.278,125.537c-2.144-47.413-47.413-77.589-47.413-77.589
		C306.16,37.174,304.55,2.689,304.55,2.689c-5.397,3.776-11.317,29.109-11.317,29.109c-7.019-13.472-22.101-16.171-22.101-16.171
		c5.941,12.395,0,17.781,0,17.781C255.504-9.151,194.63,1.078,194.63,1.078c31.787,10.24,24.245,31.253,24.245,31.253
		C202.171,16.171,186,23.169,186,23.169c35.019,19.403,4.853,30.72,4.853,30.72c-17.792,9.163-16.171-24.789-16.171-24.789
		c-6.475,7.541-6.997,42.571-6.997,42.571c-7.541-8.085-8.107-26.944-8.107-26.944c-8.064,13.472-2.144,45.803-2.144,45.803
		l-12.395-9.163c13.483,21.013-0.544,54.955-0.544,54.955c-13.003,25.643,10.336,94.976,10.336,94.976
		c-0.192-62.837,5.067-63.499,17.44-89.781c25.184-63.008,83.104-40.011,83.104-40.011s64.459-25.579,86.933,51.125
		c13.12,32.299,14.421,78.667,14.421,78.667C383.675,175.254,370.278,125.537,370.278,125.537"/>
</g>
<g>
</g>
<g>
</g>
<g>
</g>
<g>
</g>
<g>
</g>
<g>
</g>
<g>
</g>
<g>
</g>
<g>
</g>
<g>
</g>
<g>
</g>
<g>
</g>
<g>
</g>
<g>
</g>
<g>
</g>
</svg>
